<svg xmlns="http://www.w3.org/2000/svg" width="215" height="215" viewBox="0 0 215 215"><defs><style>.cls-1{fill:#558960;}</style></defs><g id="Layer_2" data-name="Layer 2"><g id="Circle"><circle class="cls-1" cx="107.5" cy="107.5" r="66"/><path class="cls-1" d="M107.5,42A65.5,65.5,0,1,1,42,107.5,65.57,65.57,0,0,1,107.5,42m0-1A66.5,66.5,0,1,0,174,107.5,66.5,66.5,0,0,0,107.5,41Z"/><path class="cls-1" d="M203,1a11,11,0,0,1,11,11V203a11,11,0,0,1-11,11H12A11,11,0,0,1,1,203V12A11,11,0,0,1,12,1H203m0-1H12A12,12,0,0,0,0,12V203a12,12,0,0,0,12,12H203a12,12,0,0,0,12-12V12A12,12,0,0,0,203,0Z"/></g></g></svg>