<svg xmlns="http://www.w3.org/2000/svg" width="215" height="215" viewBox="0 0 215 215"><defs><style>.cls-1{fill:#558960;}</style></defs><g id="Layer_2" data-name="Layer 2"><g id="Heart"><path class="cls-1" d="M108.43,63.7C97.41,49.8,78.76,44.71,63,51,42.06,59.36,38.06,83.08,39,93a41.56,41.56,0,0,0,2,9,40.09,40.09,0,0,0,10.5,15.5c7,6.8,25.8,24.64,52,48A7.46,7.46,0,0,0,108,167a7.57,7.57,0,0,0,5-2"/><path class="cls-1" d="M107.34,63.7c11-13.9,29.67-19,45.43-12.7,20.94,8.36,24.94,32.08,24,42a42.25,42.25,0,0,1-2,9,40.09,40.09,0,0,1-10.5,15.5c-7,6.8-25.8,24.64-52,48"/><path class="cls-1" d="M203,1a11,11,0,0,1,11,11V203a11,11,0,0,1-11,11H12A11,11,0,0,1,1,203V12A11,11,0,0,1,12,1H203m0-1H12A12,12,0,0,0,0,12V203a12,12,0,0,0,12,12H203a12,12,0,0,0,12-12V12A12,12,0,0,0,203,0Z"/></g></g></svg>