<svg xmlns="http://www.w3.org/2000/svg" width="215" height="215" viewBox="0 0 215 215"><defs><style>.cls-1,.cls-2{fill:#558960;}.cls-2{stroke:#558960;stroke-miterlimit:10;}</style></defs><g id="Layer_2" data-name="Layer 2"><g id="Info_icon" data-name="Info icon"><path class="cls-1" d="M86.59,84.22c1.24-9.11,5-17.71,13.22-22.45a26.55,26.55,0,0,1,21.74-1.86,23,23,0,0,1,14.67,15.21c1.58,5.43,1.43,10.28-1.85,15.07-4.48,6.53-11.09,12-17.18,16.94-12,9.76-23,19.26-22.23,36.07.36,7.69,12.36,7.74,12,0-.8-16.88,16.48-24.66,27.08-34.93,5.87-5.69,12.17-11.92,14.45-20,1.65-5.9.68-12.82-1.43-18.49C139.43,49.27,114.88,41,95.64,50.4,83.8,56.22,76.77,68.24,75,81c-.44,3.23.78,6.4,4.19,7.38,2.79.8,6.94-1,7.38-4.19Z"/><circle class="cls-2" cx="101.77" cy="160.67" r="5.82"/><path class="cls-1" d="M107.5,10A97.5,97.5,0,1,1,10,107.5,97.61,97.61,0,0,1,107.5,10m0-10A107.5,107.5,0,1,0,215,107.5,107.5,107.5,0,0,0,107.5,0Z"/></g></g></svg>