<svg xmlns="http://www.w3.org/2000/svg" width="215" height="215" viewBox="0 0 215 215"><defs><style>.cls-1,.cls-2{fill:#558960;}.cls-2{stroke:#558960;stroke-miterlimit:10;}</style></defs><g id="Layer_2" data-name="Layer 2"><g id="Question_mark" data-name="Question mark"><path class="cls-1" d="M203,1a11,11,0,0,1,11,11V203a11,11,0,0,1-11,11H12A11,11,0,0,1,1,203V12A11,11,0,0,1,12,1H203m0-1H12A12,12,0,0,0,0,12V203a12,12,0,0,0,12,12H203a12,12,0,0,0,12-12V12A12,12,0,0,0,203,0Z"/><path class="cls-1" d="M81.79,84.22c1.24-9.11,5-17.7,13.22-22.45a26.56,26.56,0,0,1,21.73-1.85,23,23,0,0,1,14.67,15.21c1.58,5.43,1.44,10.27-1.85,15.06-4.47,6.53-11.08,12-17.17,16.94-12,9.77-23,19.26-22.24,36.08.36,7.69,12.36,7.73,12,0-.79-16.88,16.49-24.66,27.08-34.93,5.88-5.7,12.17-11.92,14.45-20,1.65-5.89.69-12.81-1.43-18.49C134.63,49.28,110.07,41,90.84,50.41,79,56.23,72,68.24,70.21,81c-.44,3.24.79,6.4,4.19,7.38,2.8.8,6.95-1,7.39-4.19Z"/><circle class="cls-2" cx="96.96" cy="160.68" r="5.82"/></g></g></svg>