<svg xmlns="http://www.w3.org/2000/svg" width="215" height="215" viewBox="0 0 215 215"><defs><style>.cls-1{fill:#558960;}</style></defs><g id="Layer_2" data-name="Layer 2"><g id="Square"><rect class="cls-1" x="49.5" y="49.5" width="116" height="116"/><path class="cls-1" d="M165,50V165H50V50H165m1-1H49V166H166V49Z"/><path class="cls-1" d="M203,1a11,11,0,0,1,11,11V203a11,11,0,0,1-11,11H12A11,11,0,0,1,1,203V12A11,11,0,0,1,12,1H203m0-1H12A12,12,0,0,0,0,12V203a12,12,0,0,0,12,12H203a12,12,0,0,0,12-12V12A12,12,0,0,0,203,0Z"/></g></g></svg>