<svg xmlns="http://www.w3.org/2000/svg" width="215" height="215" viewBox="0 0 215 215"><defs><style>.cls-1{fill:#558960;}</style></defs><g id="Layer_2" data-name="Layer 2"><g id="Star"><polygon class="cls-1" points="107.34 148.75 63.1 172 71.55 122.74 35.76 87.85 85.22 80.67 107.34 35.84 129.46 80.67 178.93 87.85 143.13 122.74 151.58 172 107.34 148.75"/><path class="cls-1" d="M107.34,37,128.9,80.65l.23.47.52.08,48.2,7L143,122.2l-.37.37.09.51,8.23,48-43.11-22.67-.47-.24-.46.24L63.77,171.09l8.23-48,.09-.51-.38-.37-34.88-34,48.2-7,.52-.08.24-.47L107.34,37m0-2.26L84.89,80.21,34.68,87.5,71,122.92l-8.57,50,44.9-23.61,44.91,23.61-8.58-50L180,87.5l-50.21-7.29-22.45-45.5Z"/><path class="cls-1" d="M203,1a11,11,0,0,1,11,11V203a11,11,0,0,1-11,11H12A11,11,0,0,1,1,203V12A11,11,0,0,1,12,1H203m0-1H12A12,12,0,0,0,0,12V203a12,12,0,0,0,12,12H203a12,12,0,0,0,12-12V12A12,12,0,0,0,203,0Z"/></g></g></svg>