<svg xmlns="http://www.w3.org/2000/svg" width="105.95mm" height="47.69mm" viewBox="0 0 300.32 135.19"><defs><style>.cls-1{font-size:62.08px;}.cls-1,.cls-3,.cls-4{fill:#231f20;font-family:InkFree, Ink Free;}.cls-2{font-family:Sora-Regular, Sora Regular;letter-spacing:0em;}.cls-3{font-size:109.33px;}.cls-4{font-size:49.1px;}.cls-5{fill:#97252c;}.cls-5,.cls-6,.cls-7,.cls-8{stroke:#010101;stroke-miterlimit:10;}.cls-5,.cls-6,.cls-7{stroke-width:0.5px;}.cls-6{fill:#fff5cc;}.cls-7{fill:#dea25e;}.cls-8{fill:none;}.cls-9{fill:#7c955e;}.cls-10{fill:#8f7934;}.cls-11{fill:#7a3f1e;}.cls-12{fill:#66341b;}.cls-13{fill:#f3f4ef;}.cls-14{fill:#c6b9a7;}</style></defs><g id="Layer_2" data-name="Layer 2"><g id="Layer_1-2" data-name="Layer 1"><text class="cls-1" transform="translate(0 57.35) scale(0.96 1)">Custo<tspan class="cls-2" x="149.85" y="0" xml:space="preserve">       </tspan><tspan x="241.98" y="0">ise</tspan></text><text class="cls-3" transform="translate(108.54 99.33) scale(1.08 1)"><tspan xml:space="preserve"> M</tspan></text><text class="cls-4" transform="translate(230.72 96.09) scale(1.64 1)">E</text><path class="cls-5" d="M127.23,101.06l34.56-1q.17-6.37.34-12.75a27.75,27.75,0,0,0-3-.67c-4.2-.67-6.9,0-10.07.34-8.09.91-9.53-1.2-16.77.33a34.65,34.65,0,0,0-4.7,1.35Q127.41,94.85,127.23,101.06Z"/><path class="cls-5" d="M127.57,88.65a96.73,96.73,0,0,0,15.77.67,83,83,0,0,0,10.73-1c.52-.09,2.14-.4,4.37-.67,1.56-.19,2.84-.28,3.69-.34l-1.68-4.36-31.87,2Z"/><path class="cls-6" d="M133.27,76.57c9.25,6.09,19.21,6.41,24.16,1.68a11.89,11.89,0,0,0,3.35-6.71L146,69.86l-22.48.67c.41,4.56,3.26,7.65,6,7.72A5.43,5.43,0,0,0,133.27,76.57Z"/><path class="cls-6" d="M133.27,88.65a21.15,21.15,0,0,0,8,.67c1.48-.18,1.31-.33,3.7-.67,4.06-.59,5.3-.24,6.71-1.35,1.25-1,.62-1.52,2-2.68,2.16-1.81,5.13-1.71,6-1.68a11.43,11.43,0,0,1,2.35.34,6.81,6.81,0,0,1-.68-2.69,10.22,10.22,0,0,1,.68-3.35c.28-1.22.23-3.06-1.35-5.7a11.68,11.68,0,0,1-3.69,2.68,12.38,12.38,0,0,1-5.7,1c-3.44-.1-9,.27-18.12,1.34Z"/><path class="cls-6" d="M133.27,88.65l-9.73-7.72V70.87a21.8,21.8,0,0,0,2,1.67,22.83,22.83,0,0,0,4,2.35c.94.46,2.19,1,3.69,1.68Z"/><path class="cls-7" d="M160.84,62.48V73.93a27.21,27.21,0,0,0-6.49-.76c-2.74,0-2.52.46-6.3.57a15.1,15.1,0,0,0-4.58.58c-1.22.38-1.4.65-2.29,1-2.19.74-4,.12-6.3-.38a42.35,42.35,0,0,0-7.76-1V62.48l2.61-4.17"/><path class="cls-7" d="M127.12,62.48h33.72l-7.46-4.17-23.65,0Z"/><path class="cls-8" d="M114,80.93c-.19.65-.36,1.33-.53,2-.1.44-.19.87-.28,1.29"/><path class="cls-9" d="M126.9,99c-.05.19-.65.14-1.4.09-4.27-.24-3.93.29-6.89,0-2.8-.24-5.54-.47-8.11-2.35a10.86,10.86,0,0,1-2-1.91,6.82,6.82,0,0,1,.67-.39c2.35-1.19,5.11-.82,10.49,1.14C122.35,96.56,127.07,98.43,126.9,99Z"/><path class="cls-9" d="M122.34,94.73c0,.1-.77.53-1.67,1.52a10.3,10.3,0,0,0-2.31,4.5c-.54,1.88-2.72,4.5-10,7.71a16.17,16.17,0,0,1,3.62-6.77,20.22,20.22,0,0,1,3-2.54C118.58,96.35,122.21,94.54,122.34,94.73Z"/><path class="cls-9" d="M122.85,96a16.29,16.29,0,0,0-.2-4,14.29,14.29,0,0,0-.78-2.59c-.58-1.53-.93-4,.18-8.36a8.79,8.79,0,0,1,2.76,5.47c.13,2-.86,2.23-1.53,5.34A24,24,0,0,0,122.85,96Z"/><path class="cls-9" d="M123.4,96a18.54,18.54,0,0,0,.69-1.77c2-5.81.08-9.34,1.64-15.25A21.32,21.32,0,0,1,127,75.51a26.44,26.44,0,0,1,.65,7.23A27.43,27.43,0,0,1,123.4,96"/><path class="cls-10" d="M121.4,83.25a3.38,3.38,0,0,0-2.69.3c-1.94,1.34-1.66,5.66.38,6.67a3.45,3.45,0,0,0,2.81-.2"/><path class="cls-9" d="M114.44,86.68a7.3,7.3,0,0,1,1.14-1.42A11.47,11.47,0,0,1,117,84.2a6.86,6.86,0,0,0,2.17-3,13.33,13.33,0,0,0,.41-2.67,14.34,14.34,0,0,1,1-3.42Z"/><path class="cls-9" d="M109.86,76.51l.25-.34s.56-.75,1-1.43c.8-1.24,3.24-8.83,5.34-12.89a23.93,23.93,0,0,1,3-4.5,21.36,21.36,0,0,1-.41,3.72,19.84,19.84,0,0,1-2.85,7.24c-1.09,1.65-1.17,1.16-3.5,4.22C111.25,74.43,109.84,76.5,109.86,76.51Z"/><path class="cls-9" d="M118.32,91.7s-.06.09-1.75.15c-2,.08-2.32,0-3.51.09s-1.71.19-2.61.23a19.7,19.7,0,0,1-2,0,18,18,0,0,1-4.66-1,34.86,34.86,0,0,1-5.93-2.49,23.06,23.06,0,0,1,4.64-.54c1.14,0,2.89,0,8.22,1.27C112.14,89.8,118.41,91.24,118.32,91.7Z"/><path class="cls-9" d="M114.93,86.78v0c-.06.15-1.27-.15-1.52-.21-2-.47-3.55.24-6-.26a14.27,14.27,0,0,1-4-1.67,24.4,24.4,0,0,1-3.1-2,23.42,23.42,0,0,1-4.82-4.87A21.82,21.82,0,0,1,99.28,79a47.4,47.4,0,0,1,4.29,2.24c3.66,2,3.45,1.65,4.78,2.51,2.12,1.37,2.24,1.87,3.59,2.24C112.82,86.21,114.9,86.57,114.93,86.78Z"/><path class="cls-8" d="M132,101a32.81,32.81,0,0,1-17.17-14.5,33.17,33.17,0,0,1-2.87-24.83"/><path class="cls-9" d="M126.33,98.05a21.23,21.23,0,0,1,8.41-18.38A89,89,0,0,1,130,89.79a46.41,46.41,0,0,0-2.51,5.14C126.94,96.24,126.56,97.33,126.33,98.05Z"/><path class="cls-9" d="M115.56,87.51a28.45,28.45,0,0,1,0-11.41,15.71,15.71,0,0,1,4.65-8.42,87,87,0,0,1-2.67,10.9,44.47,44.47,0,0,0-1.45,5.51C115.82,85.52,115.65,86.72,115.56,87.51Z"/><path class="cls-10" d="M114,81.4a2.9,2.9,0,0,1-2.46-1.4c-1.51-2.37.59-6.77,2.51-6.89,1.24-.08,2.51,1.62,2.82,3.15C117.35,78.54,115.85,81.25,114,81.4Z"/><path class="cls-10" d="M109.46,91.22a2.74,2.74,0,0,1,1.28-2.36c2.22-1.51,6.44.26,6.58,2,.1,1.15-1.49,2.41-2.94,2.76C112.23,94.2,109.62,92.91,109.46,91.22Z"/><path class="cls-10" d="M110.59,79.29a2.89,2.89,0,0,1-2.54,1.24c-2.81-.08-5.26-4.3-4.28-6,.64-1.07,2.76-1.15,4.2-.55C110.11,74.93,111.5,77.7,110.59,79.29Z"/><line class="cls-8" x1="120.28" y1="89.91" x2="118.86" y2="92.01"/><line class="cls-8" x1="111.88" y1="80.98" x2="109.54" y2="79.64"/><path class="cls-8" d="M161.67,92.53q-.09.82-.24,1.71c-.06.36-.13.71-.2,1.06"/><path class="cls-9" d="M141.27,103.52c0,.07.31.13.69.22,2.2.5,1.92.65,3.47,1a10.79,10.79,0,0,0,4.52.24,7.77,7.77,0,0,0,1.37-.43,2.25,2.25,0,0,0-.26-.24c-1-.76-2.42-1-5.5-1C144,103.25,141.29,103.29,141.27,103.52Z"/><path class="cls-9" d="M148.52,102c-.05.1.83.22,1.83.78a6.31,6.31,0,0,1,2.7,3.12c.69,1.43,3.13,3,10.87,3.51a9.92,9.92,0,0,0-4.22-4.66,16.27,16.27,0,0,0-3.21-1.26C152.51,102.26,148.64,101.83,148.52,102Z"/><path class="cls-9" d="M146.62,102.43a11.37,11.37,0,0,1,1.76-3,13.08,13.08,0,0,1,1.8-1.75c1.19-1,2.52-2.82,3-6.41a11.52,11.52,0,0,0-1.88.76,8.22,8.22,0,0,0-3.08,2.62c-.89,1.49,0,1.95-.46,4.5A15.34,15.34,0,0,1,146.62,102.43Z"/><path class="cls-9" d="M146.77,102.22a11.08,11.08,0,0,1,0-1.54c.18-5,3.51-7.12,4.15-12.05a12.26,12.26,0,0,0,0-3A19.74,19.74,0,0,0,147.45,91a16.57,16.57,0,0,0-.68,11.25"/><path class="cls-10" d="M153,93.11a4.43,4.43,0,0,1,2.67,1c1.49,1.56-.45,4.77-2.95,5a4.54,4.54,0,0,1-2.84-.95"/><path class="cls-9" d="M158.92,97.69a4.87,4.87,0,0,0-.63-1.41,9.36,9.36,0,0,0-1-1.2,4.42,4.42,0,0,1-1.08-2.91c0-.84.29-1,.59-2.15a8.44,8.44,0,0,0,.25-2.89Z"/><path class="cls-9" d="M167.51,89.06a1.84,1.84,0,0,1-.08-.25s-.14-.53-.22-1c-.15-.88,1-6.23.91-9.09a9.27,9.27,0,0,0-.61-3.2,16,16,0,0,0-1.19,2.61,10,10,0,0,0-.63,5.1c.22,1.17.48.83,1.13,3C167.22,87.58,167.52,89.05,167.51,89.06Z"/><path class="cls-9" d="M153,100.4s0,.09,1.76.62c2.07.63,2.4.65,3.6,1.06s1.7.61,2.62.91,1.58.45,2.06.57a26.44,26.44,0,0,0,5.2.59,51.75,51.75,0,0,0,7.11-.23,30.62,30.62,0,0,0-4.6-1.71c-1.18-.33-3-.78-9-1.35C160.11,100.71,153.06,100,153,100.4Z"/><path class="cls-9" d="M158.7,98a0,0,0,0,0,0,0,6.48,6.48,0,0,0,1.68,0c2.22-.22,3.74.5,6.52.3a21.15,21.15,0,0,0,4.69-1,33.93,33.93,0,0,0,3.78-1.34,31.39,31.39,0,0,0,6.32-3.56,31.84,31.84,0,0,0-4.37.61c-1.48.31-1.86.5-5.13,1.46-4.39,1.28-4.08,1-5.71,1.64-2.6.94-2.84,1.34-4.38,1.52A23.34,23.34,0,0,0,158.7,98Z"/><path class="cls-8" d="M135.27,103.6a36.3,36.3,0,0,0,37.08-23.9"/><path class="cls-9" d="M137.28,103.71a13.48,13.48,0,0,1,8.15,2.33,14.66,14.66,0,0,1,5.25,7.19,55,55,0,0,1-7.35-5.36,26,26,0,0,0-3.7-2.83A24.33,24.33,0,0,0,137.28,103.71Z"/><path class="cls-9" d="M157.44,98a19.86,19.86,0,0,0,4.38-8.68,9.84,9.84,0,0,0-1.58-7.71,52.61,52.61,0,0,0-1.42,9,25.17,25.17,0,0,1-.62,4.6C157.94,96.41,157.65,97.37,157.44,98Z"/><path class="cls-10" d="M161.05,93.33a4.09,4.09,0,0,0,3.09-.37c2.48-1.37,2-5.31.05-5.94-1.26-.41-3.22.53-4.13,1.6A2.94,2.94,0,0,0,161.05,93.33Z"/><path class="cls-10" d="M162.35,102.54a1.78,1.78,0,0,0-.43-2.15c-1.72-1.78-6.77-1.62-7.61-.3-.54.85.63,2.25,2,2.92C158.33,104,161.52,103.78,162.35,102.54Z"/><path class="cls-10" d="M165.75,93.14a2.87,2.87,0,0,0,2.16,1.67c2.94.72,7.1-1.79,6.72-3.33-.25-1-2.42-1.65-4.14-1.6C167.93,90,165.42,91.68,165.75,93.14Z"/><line class="cls-8" x1="151.63" y1="98.5" x2="152.3" y2="100.49"/><line class="cls-8" x1="163.64" y1="93.67" x2="166.58" y2="93.31"/><path class="cls-9" d="M139.42,103.53a1.57,1.57,0,0,0,.17-.16,9.28,9.28,0,0,0,.66-.7c.55-.66,2.49-6.08,4-8.52a8.29,8.29,0,0,1,2-2.31,23.7,23.7,0,0,1-.52,3.12,11.88,11.88,0,0,1-2.14,4.86c-.74.85-.74.37-2.27,1.77A24.55,24.55,0,0,0,139.42,103.53Z"/><path class="cls-11" d="M128.4,99c-.15,4.13,3.33,7.73,7,8.8.78.23,4.18,1.24,6.17-.65,2.24-2.13.94-6.27.79-6.7a11.49,11.49,0,0,0-1.9-3.35,11.21,11.21,0,0,0-2-2.17c-1.41-1.09-4.65-2.74-7.23-1.32S128.41,98.55,128.4,99Z"/><path class="cls-12" d="M131,93.7a8.39,8.39,0,0,0-2.76,2.36,8.58,8.58,0,0,0-1,8.41,8.69,8.69,0,0,0,5,4.6,9.59,9.59,0,0,0,8.3-1.18"/><path class="cls-13" d="M129.77,102.9a9.29,9.29,0,0,0,4.21,3.94c.44.2,4.69,2,6.83,0a5.38,5.38,0,0,0,1.32-3.29,6.75,6.75,0,0,0-.27-2.49,9.49,9.49,0,0,0-1.18-2.63c-.81-1.4-1.54-2.67-2.76-3.29-.16-.08-.47-.22-1-.52-.82-.42-1.28-.7-1.45-.79a4.67,4.67,0,0,0-3.94.39c-2.28,1.27-2.91,4.17-2.62,6.18A7,7,0,0,0,129.77,102.9Z"/><path class="cls-14" d="M130.3,100.53a4.64,4.64,0,0,0,1.18,2.5,6.27,6.27,0,0,0,1.84,1.44c.75.41,3.94,2.12,5.78.66a4,4,0,0,0,1.19-3,6.55,6.55,0,0,0-2-4.34,5.79,5.79,0,0,0-2.63-2.1,4.14,4.14,0,0,0-3.42.26,2.9,2.9,0,0,0-.66.66,4,4,0,0,0-.39.92c-.31.82-.57.85-.79,1.44A3.25,3.25,0,0,0,130.3,100.53Z"/><path class="cls-12" d="M129.39,94.78c-.17-.63-1.32-4.61-5-6.21-3.94-1.7-9.19,0-12.16,4.51A1.23,1.23,0,0,1,113,94a1.17,1.17,0,0,1-.27.92c-.37.38-.84.11-1,.4s.56,1.11.27,1.84c-.15.36-.45.39-.53.78a1.25,1.25,0,0,0,.26.92c1.56,4.71,5.53,7.7,9.46,7.49a8.84,8.84,0,0,0,5.7-2.8"/></g></g></svg>