<svg id="Layer_1" data-name="Layer 1" xmlns="http://www.w3.org/2000/svg" viewBox="0 0 512 512"><path d="M180.2,243.1c4.8,20.8-18,37.1-36.1,25.7l-24.3-15.2L68.9,335c-13.33,21.32,2,49,27.15,49h32a32,32,0,0,1,0,64H96.15c-75.36,0-121.3-82.84-81.47-146.8L65.51,219.8,41.15,204.5c-18.11-11.4-13.49-39,7.33-43.8l91.43-21.15a16.19,16.19,0,0,1,19.29,12ZM283.1,79l41.25,66.14L300.1,160.18c-18.16,11.31-13.57,38.94,7.28,43.77l91.4,21.15a16,16,0,0,0,19.21-12l21-91.43c4.79-20.81-17.95-37-36.07-25.76L378.6,111.1l-41.2-66C299.82-15,212.2-15,174.6,45.08L167.2,56.9a32,32,0,0,0,54.21,34L228.85,79C241.6,58.58,270.9,59.33,283.1,79ZM497.3,301.3l-17-27.26a32,32,0,1,0-54.22,33.87l17,27.15c13.35,21.32-2,49-27.14,49H320l0-28.74c0-21.38-25.85-32.09-41-17l-66.41,66.43a16,16,0,0,0,0,22.63L279,493.75c15.12,15.1,41,4.39,41-17l0-28.68H415.8C491.2,448.1,537.2,365.2,497.3,301.3Z" style="fill:#558960"/></svg>