<svg xmlns="http://www.w3.org/2000/svg" width="30.42mm" height="19.71mm" viewBox="0 0 86.23 55.88"><defs><style>.cls-1{fill:#97252c;}.cls-1,.cls-2,.cls-3,.cls-4{stroke:#010101;stroke-miterlimit:10;}.cls-1,.cls-2,.cls-3{stroke-width:0.5px;}.cls-2{fill:#fff5cc;}.cls-3{fill:#dea25e;}.cls-4{fill:none;}.cls-5{fill:#7c955e;}.cls-6{fill:#8f7934;}.cls-7{fill:#7a3f1e;}.cls-8{fill:#66341b;}.cls-9{fill:#f3f4ef;}.cls-10{fill:#c6b9a7;}</style></defs><g id="Layer_2" data-name="Layer 2"><g id="Layer_1-2" data-name="Layer 1"><path class="cls-1" d="M31.79,43.71l34.55-1q.18-6.37.34-12.75a25.08,25.08,0,0,0-3-.67c-4.19-.67-6.9,0-10.07.33-8.09.91-9.53-1.2-16.77.34a35.36,35.36,0,0,0-4.7,1.34Z"/><path class="cls-1" d="M32.12,31.3A95.63,95.63,0,0,0,47.89,32a84.6,84.6,0,0,0,10.74-1c.51-.1,2.13-.41,4.36-.68,1.56-.18,2.85-.28,3.69-.33L65,25.6l-31.87,2Z"/><path class="cls-2" d="M37.83,19.22C47.08,25.32,57,25.64,62,20.9a11.88,11.88,0,0,0,3.36-6.71L50.58,12.51l-22.48.67c.41,4.56,3.26,7.66,6,7.72A5.39,5.39,0,0,0,37.83,19.22Z"/><path class="cls-2" d="M37.83,31.3a21.12,21.12,0,0,0,8.05.67c1.48-.17,1.3-.33,3.69-.67,4.07-.58,5.3-.24,6.71-1.34,1.25-1,.62-1.52,2-2.69,2.16-1.8,5.14-1.7,6-1.67a10.87,10.87,0,0,1,2.35.33A6.73,6.73,0,0,1,66,23.25a10.58,10.58,0,0,1,.67-3.36c.28-1.21.24-3.05-1.34-5.7a11.76,11.76,0,0,1-3.69,2.68,12.28,12.28,0,0,1-5.71,1c-3.44-.1-9,.27-18.11,1.34Z"/><path class="cls-2" d="M37.83,31.3,28.1,23.58V13.52a20,20,0,0,0,2,1.68,24.22,24.22,0,0,0,4,2.35c.94.45,2.19,1,3.69,1.67Z"/><path class="cls-3" d="M65.39,5.14V16.59a26.15,26.15,0,0,0-6.49-.76c-2.74,0-2.52.45-6.29.57A14.69,14.69,0,0,0,48,17c-1.23.38-1.4.65-2.29,1-2.19.75-4,.13-6.3-.38a42.76,42.76,0,0,0-7.77-.95V5.14L34.28,1"/><path class="cls-3" d="M31.67,5.14H65.39L57.93,1,34.28.94Z"/><path class="cls-4" d="M18.58,23.58c-.18.66-.36,1.34-.52,2.05-.11.44-.2.87-.28,1.29"/><path class="cls-5" d="M31.46,41.63c-.06.18-.66.13-1.4.09-4.28-.25-3.93.29-6.9,0-2.8-.25-5.53-.48-8.11-2.35a11.56,11.56,0,0,1-2-1.91,6.17,6.17,0,0,1,.68-.4c2.34-1.19,5.11-.82,10.49,1.14C26.9,39.22,31.63,41.08,31.46,41.63Z"/><path class="cls-5" d="M26.89,37.39c.06.09-.76.53-1.67,1.52a10.32,10.32,0,0,0-2.31,4.5c-.53,1.88-2.72,4.49-10,7.71a16,16,0,0,1,3.62-6.78,19.57,19.57,0,0,1,2.94-2.54C23.14,39,26.77,37.2,26.89,37.39Z"/><path class="cls-5" d="M27.4,38.69a16.29,16.29,0,0,0-.2-4,13.43,13.43,0,0,0-.78-2.6c-.58-1.53-.93-4.05.19-8.36a9.31,9.31,0,0,1,1.27,1.47,8.43,8.43,0,0,1,1.48,4c.13,2-.86,2.24-1.53,5.34A24,24,0,0,0,27.4,38.69Z"/><path class="cls-5" d="M28,38.62c.16-.36.43-1,.7-1.77,2-5.81.07-9.33,1.64-15.24a21.11,21.11,0,0,1,1.25-3.45,26.88,26.88,0,0,1,.66,7.24A27.33,27.33,0,0,1,28,38.62"/><path class="cls-6" d="M26,25.9a3.44,3.44,0,0,0-2.68.3c-1.94,1.34-1.67,5.66.37,6.67a3.41,3.41,0,0,0,2.81-.2"/><path class="cls-5" d="M19,29.34a6.84,6.84,0,0,1,1.13-1.43,11.47,11.47,0,0,1,1.4-1.06,6.85,6.85,0,0,0,2.17-3,12.78,12.78,0,0,0,.42-2.67,14,14,0,0,1,1-3.42Z"/><path class="cls-5" d="M14.41,19.16s.15-.19.26-.34.55-.74,1-1.42c.81-1.25,3.25-8.84,5.34-12.9A25.29,25.29,0,0,1,24,0a21.36,21.36,0,0,1-.41,3.72A19.72,19.72,0,0,1,20.74,11c-1.09,1.65-1.17,1.16-3.5,4.23C15.8,17.08,14.4,19.16,14.41,19.16Z"/><path class="cls-5" d="M22.88,34.35s-.06.09-1.76.16c-2,.07-2.32,0-3.51.09s-1.7.18-2.61.23-1.53,0-2,0a17.28,17.28,0,0,1-4.67-.94,35.73,35.73,0,0,1-5.93-2.5,23.16,23.16,0,0,1,4.64-.54c1.14,0,2.89.05,8.22,1.27C16.69,32.46,23,33.9,22.88,34.35Z"/><path class="cls-5" d="M19.49,29.43s0,0,0,0c-.05.16-1.27-.15-1.51-.21-2-.47-3.55.25-6-.25a14,14,0,0,1-4-1.68,24.62,24.62,0,0,1-3.1-1.95A23.93,23.93,0,0,1,0,20.49a20.75,20.75,0,0,1,3.83,1.15,43.83,43.83,0,0,1,4.29,2.23c3.67,2,3.45,1.65,4.78,2.51,2.12,1.38,2.24,1.87,3.59,2.24A17.18,17.18,0,0,1,19.49,29.43Z"/><path class="cls-4" d="M36.52,43.61A32.92,32.92,0,0,1,19.35,29.1,33.22,33.22,0,0,1,16.48,4.27"/><path class="cls-5" d="M30.88,40.71a21.33,21.33,0,0,1,8.41-18.39,91.78,91.78,0,0,1-4.74,10.13A42.72,42.72,0,0,0,32,37.58C31.5,38.89,31.12,40,30.88,40.71Z"/><path class="cls-5" d="M20.11,30.17a28.49,28.49,0,0,1,0-11.41,15.65,15.65,0,0,1,4.64-8.43A89.74,89.74,0,0,1,22.1,21.24a40.05,40.05,0,0,0-1.45,5.51C20.37,28.17,20.21,29.38,20.11,30.17Z"/><path class="cls-6" d="M18.58,24.05a2.88,2.88,0,0,1-2.46-1.4c-1.52-2.36.58-6.77,2.5-6.89,1.24-.07,2.51,1.63,2.82,3.15C21.9,21.19,20.4,23.9,18.58,24.05Z"/><path class="cls-6" d="M14,33.87a2.77,2.77,0,0,1,1.28-2.35c2.22-1.51,6.44.25,6.59,2,.09,1.16-1.5,2.41-2.95,2.76C16.78,36.85,14.18,35.56,14,33.87Z"/><path class="cls-6" d="M15.14,21.94a2.86,2.86,0,0,1-2.54,1.24c-2.81-.08-5.26-4.3-4.27-5.95.63-1.07,2.75-1.16,4.19-.55C14.66,17.58,16.05,20.35,15.14,21.94Z"/><line class="cls-4" x1="24.83" y1="32.57" x2="23.41" y2="34.67"/><line class="cls-4" x1="16.43" y1="23.63" x2="14.09" y2="22.29"/><path class="cls-4" d="M66.22,35.19c-.06.55-.14,1.12-.24,1.7-.06.36-.13.72-.2,1.06"/><path class="cls-5" d="M45.82,46.17c0,.08.31.14.69.23,2.2.49,1.93.64,3.47,1a10.8,10.8,0,0,0,4.52.24,6.5,6.5,0,0,0,1.38-.43l-.27-.24c-1-.76-2.42-1-5.5-1C48.57,45.9,45.84,46,45.82,46.17Z"/><path class="cls-5" d="M53.08,44.69c-.06.09.82.21,1.83.78a6.23,6.23,0,0,1,2.7,3.12c.69,1.43,3.13,3,10.86,3.5a9.86,9.86,0,0,0-4.22-4.65A14.91,14.91,0,0,0,61,46.18C57.06,44.91,53.19,44.48,53.08,44.69Z"/><path class="cls-5" d="M51.17,45.08a11.59,11.59,0,0,1,1.76-3,12.12,12.12,0,0,1,1.81-1.76c1.18-1,2.51-2.81,3-6.4a10,10,0,0,0-1.88.76,8,8,0,0,0-3.07,2.62c-.9,1.48,0,1.94-.47,4.49A15.34,15.34,0,0,1,51.17,45.08Z"/><path class="cls-5" d="M51.33,44.88a12.64,12.64,0,0,1,0-1.55c.19-5,3.51-7.11,4.16-12a12.83,12.83,0,0,0,0-3A19.91,19.91,0,0,0,52,33.62a16.52,16.52,0,0,0-.67,11.26"/><path class="cls-6" d="M57.58,35.77a4.44,4.44,0,0,1,2.67,1c1.5,1.57-.44,4.77-3,5a4.44,4.44,0,0,1-2.84-.95"/><path class="cls-5" d="M63.47,40.34a4.71,4.71,0,0,0-.63-1.41,9.35,9.35,0,0,0-1-1.2,4.38,4.38,0,0,1-1.09-2.91c0-.83.3-1,.6-2.14a8.7,8.7,0,0,0,.24-2.9Z"/><path class="cls-5" d="M72.06,31.71a2.15,2.15,0,0,1-.07-.24s-.15-.53-.23-1c-.15-.88,1-6.22.91-9.09a9.31,9.31,0,0,0-.61-3.2,17.83,17.83,0,0,0-1.19,2.61,10.24,10.24,0,0,0-.63,5.11c.22,1.16.48.82,1.13,3C71.77,30.23,72.07,31.7,72.06,31.71Z"/><path class="cls-5" d="M57.52,43.06s0,.08,1.77.61c2.06.63,2.4.66,3.6,1.06s1.69.62,2.62.91,1.57.45,2.06.57a25.13,25.13,0,0,0,5.19.6,53.37,53.37,0,0,0,7.11-.23,30.45,30.45,0,0,0-4.6-1.72c-1.18-.33-3-.78-9-1.35C64.66,43.36,57.61,42.69,57.52,43.06Z"/><path class="cls-5" d="M63.25,40.61v0a6,6,0,0,0,1.67,0c2.22-.22,3.74.51,6.53.31a21.16,21.16,0,0,0,4.68-1,33.65,33.65,0,0,0,3.78-1.33A30.77,30.77,0,0,0,86.23,35a32,32,0,0,0-4.37.61c-1.48.31-1.86.5-5.12,1.46-4.39,1.29-4.09,1.06-5.72,1.65-2.6.94-2.84,1.33-4.37,1.52A25.51,25.51,0,0,0,63.25,40.61Z"/><path class="cls-4" d="M39.83,46.25A36.88,36.88,0,0,0,63.2,40.06,36.76,36.76,0,0,0,76.9,22.35"/><path class="cls-5" d="M41.83,46.36A13.48,13.48,0,0,1,50,48.69a14.63,14.63,0,0,1,5.25,7.19,54.74,54.74,0,0,1-7.35-5.36,26.29,26.29,0,0,0-3.69-2.83C43.22,47.08,42.38,46.64,41.83,46.36Z"/><path class="cls-5" d="M62,40.66A20,20,0,0,0,66.37,32a9.88,9.88,0,0,0-1.57-7.71,52.68,52.68,0,0,0-1.43,9,25.1,25.1,0,0,1-.62,4.59C62.49,39.06,62.2,40,62,40.66Z"/><path class="cls-6" d="M65.61,36a4.19,4.19,0,0,0,3.09-.37c2.48-1.38,2-5.31,0-5.95-1.25-.4-3.22.53-4.13,1.61A3,3,0,0,0,65.61,36Z"/><path class="cls-6" d="M66.9,45.19A1.76,1.76,0,0,0,66.47,43c-1.72-1.78-6.77-1.62-7.61-.3-.54.85.63,2.25,2,2.93C62.89,46.68,66.08,46.43,66.9,45.19Z"/><path class="cls-6" d="M70.31,35.8c.18.81,1.21,1.43,2.15,1.66,3,.73,7.11-1.79,6.72-3.32-.25-1-2.41-1.66-4.13-1.6C72.48,32.62,70,34.34,70.31,35.8Z"/><line class="cls-4" x1="56.18" y1="41.15" x2="56.85" y2="43.15"/><line class="cls-4" x1="68.19" y1="36.32" x2="71.13" y2="35.96"/><path class="cls-5" d="M44,46.18l.17-.15s.36-.36.66-.71c.54-.65,2.48-6.08,4-8.52a8.61,8.61,0,0,1,2-2.31,23.48,23.48,0,0,1-.51,3.12,12,12,0,0,1-2.15,4.87c-.73.85-.74.36-2.27,1.77A24.11,24.11,0,0,0,44,46.18Z"/><path class="cls-7" d="M33,41.67c-.15,4.14,3.34,7.73,7,8.81.78.23,4.18,1.24,6.18-.66,2.23-2.12.93-6.26.79-6.7A11.76,11.76,0,0,0,45,39.77a11.18,11.18,0,0,0-2-2.17c-1.41-1.09-4.64-2.74-7.22-1.31S33,41.21,33,41.67Z"/><path class="cls-8" d="M35.51,36.35A8.51,8.51,0,0,0,31.7,47.13a8.73,8.73,0,0,0,5,4.6A9.61,9.61,0,0,0,45,50.54"/><path class="cls-9" d="M34.33,45.55a9.19,9.19,0,0,0,4.2,3.94c.44.2,4.69,2,6.84,0a5.41,5.41,0,0,0,1.31-3.28,7.07,7.07,0,0,0-.26-2.5,10.1,10.1,0,0,0-1.19-2.63c-.81-1.4-1.54-2.66-2.76-3.28l-1-.53c-.81-.42-1.27-.7-1.44-.79a4.67,4.67,0,0,0-3.94.4c-2.29,1.26-2.91,4.17-2.63,6.17A6.87,6.87,0,0,0,34.33,45.55Z"/><path class="cls-10" d="M34.85,43.19A4.57,4.57,0,0,0,36,45.68a5.82,5.82,0,0,0,1.84,1.45c.75.4,3.93,2.12,5.78.65a4,4,0,0,0,1.18-3,6.54,6.54,0,0,0-2-4.33,5.74,5.74,0,0,0-2.63-2.11,4.1,4.1,0,0,0-3.42.27,3.07,3.07,0,0,0-.65.65,4,4,0,0,0-.4.92c-.31.82-.56.86-.78,1.45A3.27,3.27,0,0,0,34.85,43.19Z"/><path class="cls-8" d="M34,37.43c-.18-.63-1.33-4.61-5-6.2-3.94-1.71-9.19,0-12.15,4.5a1.25,1.25,0,0,1,.72.89,1.11,1.11,0,0,1-.26.92c-.38.37-.85.1-1.05.39s.55,1.11.26,1.84c-.15.37-.45.4-.53.79a1.22,1.22,0,0,0,.27.92c1.55,4.71,5.52,7.7,9.46,7.49a8.87,8.87,0,0,0,5.7-2.81"/></g></g></svg>