<svg id="Layer_1" data-name="Layer 1" xmlns="http://www.w3.org/2000/svg" viewBox="0 0 640 512"><path d="M64,48A48,48,0,0,1,112,0H368a48,48,0,0,1,48,48V256H608v96a32,32,0,0,1,0,64H576a96,96,0,0,1-192,0H256a96,96,0,0,1-192,0V288H208a16,16,0,0,0,0-32H16a16,16,0,0,1,0-32H240a16,16,0,0,0,0-32H48a16,16,0,0,1,0-32H272a16,16,0,0,0,0-32H16a16,16,0,0,1,0-32H64Zm96,416a48,48,0,1,0-48-48A48,48,0,0,0,160,464Zm320-96a48,48,0,1,0,48,48A48,48,0,0,0,480,368ZM466.7,160H400V96h66.7c17,0,32.4,6.7,45.3,18.7L589.3,192A64,64,0,0,1,608,237.3V288H544V237.3Z" style="fill:#558960"/></svg>